<mxfile host="Electron" modified="2023-04-25T18:11:00.278Z" agent="Mozilla/5.0 (Windows NT 10.0; Win64; x64) AppleWebKit/537.36 (KHTML, like Gecko) draw.io/21.2.1 Chrome/112.0.5615.87 Electron/24.1.2 Safari/537.36" etag="MQbPsmudynBIEEoe9H8b" version="21.2.1" type="device">
  <diagram name="Страница 1" id="Apv9gRXaJSgYh0gWD6jB">
    <mxGraphModel dx="1395" dy="703" grid="1" gridSize="10" guides="1" tooltips="1" connect="1" arrows="1" fold="1" page="1" pageScale="1" pageWidth="827" pageHeight="1169" math="0" shadow="0">
      <root>
        <mxCell id="0" />
        <mxCell id="1" parent="0" />
        <mxCell id="kkerNsIc3UC59Z4m8m3E-11" value="" style="rounded=0;whiteSpace=wrap;html=1;" vertex="1" parent="1">
          <mxGeometry x="80" y="320" width="200" height="320" as="geometry" />
        </mxCell>
        <mxCell id="kkerNsIc3UC59Z4m8m3E-12" value="" style="rounded=0;whiteSpace=wrap;html=1;" vertex="1" parent="1">
          <mxGeometry x="290" y="320" width="200" height="320" as="geometry" />
        </mxCell>
        <mxCell id="kkerNsIc3UC59Z4m8m3E-13" value="" style="rounded=0;whiteSpace=wrap;html=1;" vertex="1" parent="1">
          <mxGeometry x="500" y="320" width="200" height="320" as="geometry" />
        </mxCell>
        <mxCell id="kkerNsIc3UC59Z4m8m3E-14" value="" style="rounded=0;whiteSpace=wrap;html=1;" vertex="1" parent="1">
          <mxGeometry x="710" y="320" width="200" height="320" as="geometry" />
        </mxCell>
        <mxCell id="kkerNsIc3UC59Z4m8m3E-15" value="" style="rounded=0;whiteSpace=wrap;html=1;" vertex="1" parent="1">
          <mxGeometry x="920" y="320" width="200" height="320" as="geometry" />
        </mxCell>
        <mxCell id="kkerNsIc3UC59Z4m8m3E-16" value="" style="rounded=0;whiteSpace=wrap;html=1;" vertex="1" parent="1">
          <mxGeometry x="500" y="650" width="200" height="320" as="geometry" />
        </mxCell>
        <mxCell id="kkerNsIc3UC59Z4m8m3E-17" value="Авторизация" style="text;html=1;strokeColor=none;fillColor=none;align=center;verticalAlign=middle;whiteSpace=wrap;rounded=0;" vertex="1" parent="1">
          <mxGeometry x="80" y="280" width="200" height="30" as="geometry" />
        </mxCell>
        <mxCell id="kkerNsIc3UC59Z4m8m3E-18" value="Пароли" style="text;html=1;strokeColor=none;fillColor=none;align=center;verticalAlign=middle;whiteSpace=wrap;rounded=0;" vertex="1" parent="1">
          <mxGeometry x="290" y="280" width="200" height="30" as="geometry" />
        </mxCell>
        <mxCell id="kkerNsIc3UC59Z4m8m3E-19" value="Пароль" style="text;html=1;strokeColor=none;fillColor=none;align=center;verticalAlign=middle;whiteSpace=wrap;rounded=0;" vertex="1" parent="1">
          <mxGeometry x="500" y="280" width="200" height="30" as="geometry" />
        </mxCell>
        <mxCell id="kkerNsIc3UC59Z4m8m3E-20" value="Настройки" style="text;html=1;strokeColor=none;fillColor=none;align=center;verticalAlign=middle;whiteSpace=wrap;rounded=0;" vertex="1" parent="1">
          <mxGeometry x="710" y="280" width="200" height="30" as="geometry" />
        </mxCell>
        <mxCell id="kkerNsIc3UC59Z4m8m3E-21" value="Генерация пароля" style="text;html=1;strokeColor=none;fillColor=none;align=center;verticalAlign=middle;whiteSpace=wrap;rounded=0;" vertex="1" parent="1">
          <mxGeometry x="920" y="280" width="200" height="30" as="geometry" />
        </mxCell>
      </root>
    </mxGraphModel>
  </diagram>
</mxfile>
